<?xml version="1.0" encoding="UTF-8"?> <svg xmlns="http://www.w3.org/2000/svg" fill="none" height="512" viewBox="0 0 24 24" width="512"><g fill="rgb(0,0,0)"><path clip-rule="evenodd" d="m17 3h-10v1h10zm3 1c.5523 0 1 .44772 1 1v14c0 .5523-.4477 1-1 1h-16c-.55228 0-1-.4477-1-1v-14c0-.55228.44772-1 1-1v-1c-1.10457 0-2 .89543-2 2v14c0 1.1046.89543 2 2 2h16c1.1046 0 2-.8954 2-2v-14c0-1.10457-.8954-2-2-2z" fill-rule="evenodd"></path><path d="m18 2.5c0-.27614.2239-.5.5-.5s.5.22386.5.5v2c0 .27614-.2239.5-.5.5s-.5-.22386-.5-.5z"></path><path d="m5 2.5c0-.27614.22386-.5.5-.5s.5.22386.5.5v2c0 .27614-.22386.5-.5.5s-.5-.22386-.5-.5z"></path><g clip-rule="evenodd" fill-rule="evenodd"><path d="m21 8h-18v-1h18z"></path><path d="m7 11h-2v1h2zm-2-1c-.55228 0-1 .4477-1 1v1c0 .5523.44772 1 1 1h2c.55228 0 1-.4477 1-1v-1c0-.5523-.44772-1-1-1z"></path><path d="m13 11h-2v1h2zm-2-1c-.5523 0-1 .4477-1 1v1c0 .5523.4477 1 1 1h2c.5523 0 1-.4477 1-1v-1c0-.5523-.4477-1-1-1z"></path><path d="m19 11h-2v1h2zm-2-1c-.5523 0-1 .4477-1 1v1c0 .5523.4477 1 1 1h2c.5523 0 1-.4477 1-1v-1c0-.5523-.4477-1-1-1z"></path><path d="m7 16h-2v1h2zm-2-1c-.55228 0-1 .4477-1 1v1c0 .5523.44772 1 1 1h2c.55228 0 1-.4477 1-1v-1c0-.5523-.44772-1-1-1z"></path><path d="m13 16h-2v1h2zm-2-1c-.5523 0-1 .4477-1 1v1c0 .5523.4477 1 1 1h2c.5523 0 1-.4477 1-1v-1c0-.5523-.4477-1-1-1z"></path><path d="m19 16h-2v1h2zm-2-1c-.5523 0-1 .4477-1 1v1c0 .5523.4477 1 1 1h2c.5523 0 1-.4477 1-1v-1c0-.5523-.4477-1-1-1z"></path></g></g></svg> 