<?xml version="1.0" encoding="UTF-8"?> <svg xmlns="http://www.w3.org/2000/svg" id="Calque_1" data-name="Calque 1" viewBox="0 0 75 75"><path d="M19.8,57s0,.1-.05.14-.07.19-.18.21a.13.13,0,0,1-.11-.08c-.07-.15.05-.2.15-.26l.13,0Z" style="fill:#96bf0e"></path><path d="M48.09,11.71c.26,0,.27.42.57.41,0,0,.05.08,0,.12a.09.09,0,0,1-.15,0c-.22-.14-.53-.22-.45-.59Z" style="fill:#fcfcfc"></path><path d="M40.92,13.25c.1.12.28.27,0,.38s-.1-.18-.16-.28Z" style="fill:#fefefe"></path><path d="M15.73,50.57c.24-.16.09-.54.46-.76C16.05,50.17,16.18,50.52,15.73,50.57Z" style="fill:#fcfcfc"></path><path d="M36.58,12c-.09.27,0,.41.3.41a7.21,7.21,0,0,1,1,.14c.21,0,.37.13.5-.17s.28.06.43,0c0,.23-.35.13-.23.31s.37,0,.56-.05c-.08.38.23.46.45.6a.09.09,0,0,0,.15,0,.2.2,0,0,0,0-.13c-.3,0-.32-.36-.57-.41.18-.56.2-.58.57-.15s.65.35.93.63.36.25,0,.47-.1.49.12.71l.16-.5a4.41,4.41,0,0,1,1.28,3.23c-.16,0-.09-.47-.34-.15a5.3,5.3,0,0,0,0,1.63c.6.15.32.62.37,1a.46.46,0,0,1-.33.54c-.1,0-.18.07-.16.2s.1.11.18.1.19.09.18.23a5.36,5.36,0,0,1-.15,1.26A1.73,1.73,0,0,0,42,23.4s0,.06,0,.09c.35,4.46,3.16,7.3,6.49,9.79a22.13,22.13,0,0,0,5.58,3,11.66,11.66,0,0,1,1.16.46c.29.14.65,0,.91.31s.34,0,.48-.12.36-.18.44.08.43.47.73.55A52,52,0,0,0,65.62,39l3.19.35a10.15,10.15,0,0,1-1.77.48,33.82,33.82,0,0,1-9.31.55,39.28,39.28,0,0,1-10.52-2.08.39.39,0,0,0-.15,0l-.08,0,0,.09c.05.57.19.68.83.67.14,0,.41-.18.33.23,0,.15.19.21.34.18.65-.15,1.1,0,1.16.75a.21.21,0,0,0,.2.18c.1-.21-.14-.41,0-.73.13.86.9.35,1.29.72.17.16.28.26.19.47s-.28.09-.41.05a16,16,0,0,1-4.36-1.61,1.68,1.68,0,0,0-.93-.29.68.68,0,0,1-.78-.63c-.19.08-.1.38-.29.35s-.23-.25-.31-.4-.08-.25-.12-.37c.33-.06.39-.34.5-.59h0c-.15.11-.18,0-.23-.11a.26.26,0,0,0-.27-.15c-.14,0,0,.2-.1.29s.31.33.1.56a.65.65,0,0,1-.67-.46c-.09-.24-.21-.24-.5,0-.11.08-.09,0-.12,0s-.09-.33-.31-.34c0-.27.43,0,.4-.27a.66.66,0,0,0-.48-.61h-.1l0,0h0l0,0c.16.28-.2.65.17.89-.08.19-.13.29-.38.13-.79-.48-.8-.46-.53-1.35,0-.16-.08-.18-.21-.25-.07.16,0,.36-.15.49s-.19.18-.23,0-.2-.24-.4-.12c-.44.27-.56.21-.6-.3,0-.13,0-.27,0-.39,0-.28-.11-.54-.45-.22-.18.17-.24,0-.26-.11s0-.42,0-.64c-.17,0-.23.14-.34.2s-.39.09-.49-.18-.12-.59-.39-.78c.21-.07.35.16.56.16,0-.07,0-.11,0-.12s-.32-.29-.48-.42c-.37-.3-.42-.28-.51.2-.17.09-.21-.09-.29-.16a5.08,5.08,0,0,0-.76-.69,4.22,4.22,0,0,1-.74-.81c-.1-.11,0-.26,0-.37s.17-.25,0-.35-.16-.36-.39-.16-.17,0-.16-.05c0-.25-.06-.36-.32-.37s-.12-.13-.08-.24c.19-.52.09-.63-.46-.55a.61.61,0,0,1-.18,0c.18-.29,0-.57,0-.93-.26.35-.38.22-.49,0a4.07,4.07,0,0,1-.32-1.08c0-.09,0-.4-.27-.17s-.41-.17-.34-.55.16-.59-.13-.63-.15-.14-.22-.22c-.5-.62-.32-1.45-.68-2.09-.06-.11,0-.51-.33-.23-.08,0-.06-.08-.07-.13-.07-.23-.13-.47-.19-.71,0,0,0-.05,0-.06s-.06,0-.09,0c-.29.07-.31-.08-.16-.24s.17-.38,0-.72c-.38-.87-1-1.77-.35-2.8.14-.23.25-.61-.26-.7-.21,0-.29-.19-.18-.41a15.83,15.83,0,0,0,.76-2.23c.06-.18.09-.34.36-.37a.44.44,0,0,0,.26-.69c-.17-.27,0-.27.19-.21s0,.33.16.28,0-.26-.05-.38c-.12-.63.27,0,.35-.14-.2-.64-.2-.65.47-1A15.06,15.06,0,0,1,36,12.2a.87.87,0,0,0,.53-.2Z" style="fill:#f29802"></path><path d="M34.3,48c-.48-.29-.7-.24-1,.23-.1.14-.14.46-.41.11-.08-.11-.26,0-.31.13-.3.71-.76.84-1.39.43a.17.17,0,0,0-.1,0s-.05,0-.08.06c.06.23.4.14.45.42a.81.81,0,0,0-.92.41.58.58,0,0,1-.92.07h0c0-.19.08-.27.21-.35a16,16,0,0,1,4.06-2.36,1.63,1.63,0,0,0,.74-.49.91.91,0,0,1,1.05-.32c-.23-.45,0-.48.3-.41s.56.3.76-.11c.13.08.28,0,.43.05s.51,0,.54-.36h0l.41-.05c.33.1-.34.37.09.49a.83.83,0,0,0,.69,0l.14-.07c-.43,0-.49-.6-.93-.53,0-.07-.13-.16,0-.2.52-.13,1.06-.66,1.52.09.13-.13,0-.56.38-.28.26.18.25-.11.28-.27.07-.51.18-.55.61-.25a1.58,1.58,0,0,1,.15.12c.16.1.29.28.52.2s0-.33.13-.47c.34,0,.44.33.69.43s.08-.13.08-.2c0-.5.12-.56.61-.37a1,1,0,0,0,.51.13c.16.32-.34.1-.27.35a3.15,3.15,0,0,0,.91-.11c.09,0,.25,0,.18-.22s-.1-.2-.25-.17l-.29,0c.25-.37.63-.24,1-.25.19,0,.36.07.52-.12s.56.12.86,0,.61-.1.72.31c.05.21.28.12.32.08.25-.25.6-.13.88-.28a.18.18,0,0,1,.26,0c.39.52.47.52.77,0l.09-.11a.81.81,0,0,0,.6.53l.1.05v-.12c-.07-.2,0-.21.19-.19a3.39,3.39,0,0,1,1.19.46c.15.08.28.2.34-.11s.29-.16.4-.08a3.57,3.57,0,0,1,.54.49c.21.22.37-.08.6,0,.72.07,1.21.61,1.86.75.18,0,.43.39.59,0a1.36,1.36,0,0,1,.26.1c.18.08.45.3.51.25.47-.39.34,0,.39.25a.3.3,0,0,0,.33.25,4,4,0,0,1,2,.65,1.24,1.24,0,0,1,.56.72c.19.46.38.53.81.32.18-.09.3-.07.39.14a15.85,15.85,0,0,0,1.24,2,.45.45,0,0,1,.07.52.41.41,0,0,0,.26.63c.1,0,.31-.08.27.15s-.2.09-.32.06h-.14c0,.35.39.17.53.34s-.26.08-.3.21,0,.11.08.11c.43,0,.53.25.45.65a16.14,16.14,0,0,1-1.54,3.66s-.06.12-.08.11c-.75-.09-.86.76-1.42,1a.12.12,0,0,0-.06.2c.32.39-.16.3-.24.46-.2-.14,0-.24,0-.36-.43.11-.44.15-.13.92a5.67,5.67,0,0,0-1.73.4c-.12,0-.3,0-.29-.2,0-.48,0-.48-.5-.46.38.56-.06.49-.36.48a4.68,4.68,0,0,1-2.41-.9c-.09-.06-.16-.07,0-.22s-.07-.41-.25-.56-.5-.37-.75-.55c-.06-.05-.17-.13-.2-.11-.6.34-.8-.24-1.13-.48s0-.42-.07-.6-.31.21-.53,0a8.52,8.52,0,0,1-1-1.08,1.39,1.39,0,0,0-1.1-.74.15.15,0,0,1-.11,0c-2.14-1.76-4.69-2-7.3-1.9a22.19,22.19,0,0,0-9.85,2.89c-.48.26-.84.71-1.42.82-.33.06-.52.46-.89.54-.14,0-.19.16-.18.31,0,.4-.15.48-.5.4-.06,0-.51-.31-.25.19.07.13-.11.12-.13.09-.3-.22-.49,0-.68.17a54.6,54.6,0,0,0-7.56,6.6c-.13.13-.27.24-.41.36l-.05,0a20.38,20.38,0,0,1,2.31-4.26A39.84,39.84,0,0,1,33.91,48.38l.4-.28a2.58,2.58,0,0,0,.81-.49C34.85,47.75,34.43,47.57,34.3,48Zm2.8-1.32c-.15-.38-.42-.51-.7-.41-.09,0-.15.52-.06.6C36.62,47.1,36.82,46.71,37.1,46.69Zm22,11.53c-.23-.34-.45-.06-.66,0-.05,0-.14.05-.1.12s.12.14.19.06S58.91,58.33,59.11,58.22Z" style="fill:#0298d3"></path><path d="M26.9,47c.13.19,0,.3-.13.41a1.4,1.4,0,0,0-.33.8c0,.25-.39.36-.44.68s-.32.39-.67.36c-.19,0-.36.31-.28.49s.18.26-.09.3-.12.13-.09.25-.06.3-.24.24-.26-.14-.4,0-.09.35,0,.52a1.11,1.11,0,0,1,.09.19c-.16.09-.33,0-.48.08a2.64,2.64,0,0,1-.42.23c.38.11.3.28.08.46s-.46.32-.68.49-.61.09-.3.56c.11.16-.22.29-.43.37s-.77-.15-.51.47c-.52.11-.64.77-1.17.84a1.36,1.36,0,0,0-1,.67c-.13.47-.43.55-.74.71s.3.31-.06.32c-.16,0-.31-.11-.47-.13a.29.29,0,0,0-.25.12c-.29.58-.88.78-1.35,1.13a1.65,1.65,0,0,1-1.23.23c-.34,0-.78-.13-.7.5,0,.14-.07.27-.28.24a16.86,16.86,0,0,0-2.46-.08c-.18,0-.32,0-.41-.24s-.4-.21-.63-.28l-.05,0c-.14-.18-.27-.12-.41,0s-.1.24-.25.15,0-.22-.06-.38c-.44.63-.73.17-1-.14A17.59,17.59,0,0,1,7,54.5s-.07-.14,0-.17c.52-.58-.17-1.15,0-1.73,0-.09-.1-.12-.18-.11-.3,0-.21-.2-.18-.33,0-.29.15-.08.24,0s.11.06.13,0a.27.27,0,0,0-.08-.31c-.18-.16-.42-.15-.71-.24.44-.38.3-1,.69-1.37,0,0-.07-.12-.06-.17,0-.2.19-.38.33-.21.4.47.52.1.75-.22l-.52-.05a4,4,0,0,1,2.36-2,.58.58,0,0,1,.14,0c0,.32.24.31.43.26.43-.11.84-.26,1.26-.4,0,0,.1,0,.08-.09-.13-.35.15-.44.38-.49s.65-.33,1,0c.08.09.24.19.27.06.12-.63.68-.49,1-.54a4.12,4.12,0,0,0,2-.58,11.94,11.94,0,0,1,1.34-.63,10.78,10.78,0,0,0,3.06-2.72,19.67,19.67,0,0,0,3.87-9.06c.17-.91.3-1.84.39-2.76A9.64,9.64,0,0,1,25,29.08c.06-.26-.1-.55,0-.84s-.08-.3-.23-.39-.33-.32-.06-.51a.73.73,0,0,0,.29-.72,51.25,51.25,0,0,0-.53-6.07c-.24-1.63-.58-3.24-.9-4.86l.06,0a19.82,19.82,0,0,1,2.15,3.94,38.5,38.5,0,0,1,2.69,9.64,43.34,43.34,0,0,1,.46,6c0,.47-.05.94-.07,1.42.73-.4.76-.5.39-1.39h0c.27-.05.49-.1.32-.49-.33-.77-.32-.77.34-1.25a.21.21,0,0,0,.13-.21c-.22-.11-.36.24-.63.13.26-.31.54-.59.16-1-.09-.09.17-.51.18-.8h0c.43,0,.52.21.52.62a24,24,0,0,1-.11,3.6,4.35,4.35,0,0,0-.21,1h0l-.06,0L30,37h0a3.78,3.78,0,0,0,.08,1c.11.35-.23.5-.37.74l-.13,0,0,0c.05,0,.1,0,.08-.07.11.1.33,0,.38.14s-.12.26-.23.35-.43.34-.37.68a.29.29,0,0,1-.19.33c-.2.05-.23.27-.17.46s.24.31,0,.48c0,0,0,.09,0,.12a1,1,0,0,1,0,1,.81.81,0,0,1-.71.36,1.06,1.06,0,0,1-.19,0c-.11,0-.21,0-.23.09s.11.12.2.12a.43.43,0,0,1,.45.18c-.4.13-.39.31-.07.55s.24.44-.12.57c-.14.05-.28.09-.41.15-.28.13-.5.27-.08.51.22.13.05.22,0,.26a5.8,5.8,0,0,1-.59.19c0,.15.1.16.17.2.36.24.31.45,0,.67s-.41.21-.48.46c-.26-.13.06-.34-.12-.56-.11.26-.19.48-.3.68C26.34,46.94,26.48,47.06,26.9,47Zm2.47-7.84c-.26.21-.4-.46-.66,0-.08.16-.23.39-.06.46C29,39.8,29.2,39.57,29.37,39.16Zm-.59,1.68c-.5.28-.5.28-.51.83C28.37,41.33,29.43,41.68,28.78,40.84ZM29,38.75a3.45,3.45,0,0,1-.1-1.34C28.72,38.13,28.73,38.51,29,38.75ZM6.77,51.56c.46-.05.33-.41.47-.76C6.86,51,7,51.4,6.77,51.56Z" style="fill:#96bf0e"></path></svg> 