<svg height="512" viewBox="0 0 54 60" width="512" xmlns="http://www.w3.org/2000/svg"><g id="Page-1" fill="none" fill-rule="evenodd"><g id="003---Pin-and-Ball" fill="rgb(0,0,0)" fill-rule="nonzero"><path id="Shape" d="m7.45 60h7.277c.6765704-.0013712 1.3211345-.2882476 1.775-.79l.005-.005c5.46-6.119 6.9-15.264 4.041-25.75-.7745394-2.7783973-1.7717685-5.4898436-2.982-8.108-1.49-3.392-2.443-5.628-2.1-9.323 0-.009 0-.016 0-.024v-.009c.1538744-1.4606328.4332397-2.9053026.835-4.318 1.143-4.2.927-7.378-.643-9.432-1.1084017-1.39620634-2.7864531-2.21925584-4.569-2.241-1.78258095.02160151-3.46069031.84467944-4.569 2.241-1.571 2.059-1.787 5.228-.644 9.432 1.814 6.668.655 9.305-1.265 13.675-1.2096492 2.6180536-2.20686153 5.3291202-2.982 8.107-2.854 10.486-1.419 19.631 4.046 25.754.4536869.5021227 1.09827526.7893731 1.775.791zm1.319-43h4.639c-.0415963 1.346022.0986699 2.6915003.417 4h-5.473c.31833013-1.3084997.45859625-2.653978.417-4zm-.661-13.544c.73077401-.90063321 1.82140663-1.43332731 2.981-1.456 1.159307.02269281 2.2496245.55541168 2.98 1.456 1.155 1.511 1.26 4.171.3 7.691-.3531521 1.2648469-.6204276 2.5521127-.8 3.853h-4.969c-.1795724-1.3008873-.44684793-2.5881531-.8-3.853-.951-3.52-.847-6.18.308-7.691zm-4.549 30.524c.75019752-2.682206 1.71428778-5.2999301 2.883-7.828.483-1.1.932-2.122 1.3-3.152h6.688c.373 1.029.823 2.053 1.306 3.152 1.1687122 2.5280699 2.1328025 5.145794 2.883 7.828 2.708 9.952 1.464 18.212-3.6 23.89-.0751559.0812837-.1803094.1282594-.291.13h-7.278c-.10897304-.001468-.21262904-.0473367-.287-.127-5.063-5.673-6.313-13.939-3.604-23.893z"/><path id="Shape" d="m8.673 56c.38114918-.0002403.72901796-.2171282.89700511-.5592613s.12687716-.7500093-.10600511-1.0517387c-4.464-5.789-3.579-13.722-2.046-19.358.12695166-.525937-.18741954-1.0574623-.70947218-1.1995451-.52205263-.1420827-1.06243242.1568121-1.21952782.6745451-1.653 6.073-2.58 14.664 2.392 21.1.18840037.2473072.48110708.3929214.792.394z"/><path id="Shape" d="m20.767 24.473c7.4520398-6.2808869 18.4479373-5.9048707 25.4535078.8704094 7.0055704 6.77528 7.7487768 17.7524743 1.7203879 25.4102132-6.0283889 7.6577388-16.8732543 9.5124749-25.1038957 4.2933774-.4648164-.282761-1.0704048-.1420315-1.3629055.3167183-.2925006.4587499-.1645737 1.0671715.2879055 1.3692817 9.0967997 5.7713655 21.085355 3.7229212 27.7497329-4.7415038 6.6643778-8.4644251 5.8426246-20.5989339-1.9021003-28.0875693-7.7447248-7.4886354-19.8999981-7.902051-28.1356326-.9569269-.2725937.2309722-.4012584.5898263-.3375274.9413854.063731.3515592.3101754.6424131.6465.763.3363246.120587.7114338.0525868.9840274-.1783854z"/><path id="Shape" d="m32 55c0 .5522847.4477153 1 1 1 9.3845001-.010471 16.989529-7.6154999 17-17 0-.5522847-.4477153-1-1-1s-1 .4477153-1 1c-.0093685 8.2803876-6.7196124 14.9906315-15 15-.2652165 0-.5195704.1053568-.7071068.2928932s-.2928932.4418903-.2928932.7071068z"/><path id="Shape" d="m37.789 24.789c-1.1603151 1.3719698-1.0025734 3.4217212.354 4.6.6904482.7089624 1.6325604 1.1171392 2.622 1.136.736298.013839 1.4473832-.2682176 1.974-.783 1.1603151-1.3719698 1.0025734-3.4217212-.354-4.6-1.1784621-1.3531757-3.2247155-1.5103401-4.596-.353zm3.536 3.536c-.377.376-1.2.211-1.768-.354s-.73-1.391-.354-1.767c.1517415-.1386522.3527304-.2106912.558-.2.4595717.024708.8923724.2239394 1.21.557.565.561.729 1.387.354 1.764z"/><path id="Shape" d="m43.615 35.858c.6904482.7089624 1.6325604 1.1171392 2.622 1.136.736298.013839 1.4473832-.2682176 1.974-.783 1.0312557-1.4097214.8809028-3.36076-.3541686-4.5958314s-3.18611-1.3854243-4.5958314-.3541686c-1.1583132 1.3715197-1.0006438 3.4189949.354 4.597zm1.06-3.183c.1520337-.1381666.3528133-.2101306.558-.2.4595786.0238419.892571.2228037 1.21.556.565.565.73 1.391.354 1.768s-1.2.21-1.768-.354-.729-1.393-.354-1.77z"/><path id="Shape" d="m36.143 36.386c.6904482.7089624 1.6325604 1.1171392 2.622 1.136.736298.013839 1.4473832-.2682176 1.974-.783 1.0312557-1.4097214.8809028-3.36076-.3541686-4.5958314s-3.18611-1.3854243-4.5958314-.3541686c-1.1583132 1.3715197-1.0006438 3.4189949.354 4.597zm1.057-3.186c.1517415-.1386522.3527304-.2106912.558-.2.4595717.024708.8923724.2239394 1.21.557.565.565.73 1.391.354 1.768s-1.2.211-1.768-.354-.727-1.391-.354-1.771z"/></g></g></svg>