<?xml version="1.0" encoding="UTF-8"?> <svg xmlns="http://www.w3.org/2000/svg" width="49" height="49" viewBox="0 0 49 49" fill="none"><path d="M42.875 36.75V30.625C42.875 30.2189 42.7137 29.8294 42.4265 29.5422C42.1393 29.2551 41.7499 29.0938 41.3438 29.0938C40.9376 29.0938 40.5482 29.2551 40.261 29.5422C39.9738 29.8294 39.8125 30.2189 39.8125 30.625V36.75C39.8125 37.1561 39.6512 37.5456 39.364 37.8328C39.0768 38.1199 38.6874 38.2812 38.2812 38.2812H10.7188C10.3126 38.2812 9.92316 38.1199 9.63599 37.8328C9.34883 37.5456 9.1875 37.1561 9.1875 36.75V30.625C9.1875 30.2189 9.02617 29.8294 8.73901 29.5422C8.45184 29.2551 8.06236 29.0938 7.65625 29.0938C7.25014 29.0938 6.86066 29.2551 6.57349 29.5422C6.28633 29.8294 6.125 30.2189 6.125 30.625V36.75C6.125 37.9683 6.60898 39.1368 7.47048 39.9983C8.33197 40.8598 9.50041 41.3438 10.7188 41.3438H38.2812C39.4996 41.3438 40.668 40.8598 41.5295 39.9983C42.391 39.1368 42.875 37.9683 42.875 36.75ZM33.1056 28.7569L25.4494 34.8819C25.179 35.0955 24.8446 35.2117 24.5 35.2117C24.1554 35.2117 23.821 35.0955 23.5506 34.8819L15.8944 28.7569C15.6154 28.4935 15.4454 28.1351 15.4181 27.7525C15.3908 27.3698 15.5081 26.9908 15.7468 26.6905C15.9855 26.3902 16.3282 26.1905 16.7071 26.1308C17.0861 26.0711 17.4736 26.1558 17.7931 26.3681L22.9688 30.5025V9.1875C22.9688 8.78139 23.1301 8.39191 23.4172 8.10474C23.7044 7.81758 24.0939 7.65625 24.5 7.65625C24.9061 7.65625 25.2956 7.81758 25.5828 8.10474C25.8699 8.39191 26.0312 8.78139 26.0312 9.1875V30.5025L31.2069 26.3681C31.3611 26.2226 31.5438 26.1106 31.7435 26.0394C31.9432 25.9682 32.1556 25.9392 32.3671 25.9543C32.5786 25.9694 32.7846 26.0283 32.9722 26.1272C33.1597 26.2261 33.3247 26.3629 33.4567 26.5288C33.5886 26.6948 33.6846 26.8864 33.7387 27.0914C33.7927 27.2965 33.8036 27.5105 33.7706 27.72C33.7376 27.9294 33.6614 28.1297 33.547 28.3082C33.4325 28.4867 33.2822 28.6395 33.1056 28.7569Z" fill="white"></path></svg> 