<?xml version="1.0" encoding="UTF-8"?> <svg xmlns="http://www.w3.org/2000/svg" id="_x33_0" height="512" viewBox="0 0 64 64" width="512"><g><circle cx="32" cy="16" r="1"></circle><circle cx="40" cy="16" r="1"></circle><path d="m39.789 20.658.105-.211-1.789-.895-.105.212c-.381.762-1.147 1.236-2 1.236s-1.619-.474-2-1.236l-.105-.211-1.789.895.105.211c.722 1.444 2.174 2.341 3.789 2.341s3.067-.897 3.789-2.342z"></path><path d="m55 42.797c0-7.79-5.815-14.495-13.527-15.597-.404-.058-.729-.352-.829-.747l-.164-.658c1.845-1.064 3.274-2.761 3.996-4.795h1.524c1.654 0 3-1.346 3-3 0-1.134-.64-2.112-1.571-2.621l.611-1.222c.628-1.256.96-2.662.96-4.067 0-5.012-4.078-9.09-9.09-9.09h-2.848c-5.448 0-10.828 1.429-15.559 4.132l-1.137.649.926.926c2.28 2.28 3.568 5.279 3.684 8.484-1.149.421-1.976 1.515-1.976 2.809 0 1.654 1.346 3 3 3h1.525c.722 2.034 2.151 3.731 3.996 4.795l-.206.825c-.088.352-.359.629-.707.724-3.795 1.035-7.13 3.233-9.607 6.173v-4.517c0-1.103-.897-2-2-2h-2c-1.103 0-2 .897-2 2h-2.556c-.694-1.19-1.97-2-3.444-2-.902 0-1.726.311-2.396.817-.366-.493-.946-.817-1.605-.817h-2c-1.103 0-2 .897-2 2v6c0 1.103.897 2 2 2h2c.348 0 .67-.097.955-.254.046.138.081.278.131.415l5.459 15.012c1.05 2.888 3.819 4.827 6.891 4.827 2.547 0 4.875-1.228 6.347-3.215.129 1.3.217 2.605.217 3.914v5.301h28v-16h2zm-19.631 4.203h1.262c1.307 0 2.369 1.062 2.369 2.369v4.631c0 .552-.448 1-1 1s-1-.448-1-1c0-1.048-.71-1.957-1.727-2.212l-.479-.12c-1.056-.265-1.794-1.21-1.794-2.299 0-1.307 1.062-2.369 2.369-2.369zm1.262-2h-1.262c-.159 0-.309.03-.464.047-2.615-4.118-4.218-8.838-4.624-13.702l-.146-1.763c.101-.034.205-.062.307-.095l1.154 3.462c.409 1.227 1.552 2.051 2.845 2.051h3.117c1.293 0 2.437-.824 2.846-2.051l1.228-3.684c.086.015.171.032.256.049l-.169 2.031c-.406 4.864-2.01 9.583-4.625 13.702-.154-.017-.305-.047-.463-.047zm9.369-26h-1.059c.037-.329.059-.662.059-1v-1h1c.552 0 1 .448 1 1s-.448 1-1 1zm-8.938-16h2.848c3.909 0 7.09 3.181 7.09 7.09 0 1.097-.259 2.192-.749 3.171l-.869 1.739h-.382v-1.867c0-1.047-.558-2.033-1.456-2.573l-3.544-2.126v-2.434h-2v2.236l-8.789 2.397c-1.302.355-2.211 1.545-2.211 2.894v1.473h-.028c-.142-3.227-1.31-6.269-3.371-8.731 4.152-2.142 8.78-3.269 13.461-3.269zm-11.062 16c-.552 0-1-.448-1-1s.448-1 1-1h1v1c0 .338.022.671.059 1zm3-1v-4.473c0-.45.303-.847.736-.965l9.115-2.485 3.662 2.197c.3.18.486.509.486.858v4.868c0 3.859-3.141 7-7 7s-6.999-3.141-6.999-7zm7 9c.912 0 1.792-.139 2.622-.392l.082.329c.165.661.546 1.221 1.055 1.623l-1.251 3.756c-.137.41-.519.684-.949.684h-3.117c-.431 0-.812-.274-.949-.684l-1.223-3.669c.47-.399.83-.923.985-1.542l.124-.497c.829.253 1.709.392 2.621.392zm-19 2h2v6l-2 .002zm1.655 8c-.589 1.128-1.072 2.319-1.428 3.562l-.363 1.269-4.098-6.831h2.234c0 1.103.897 2 2 2zm-3.655-6v2h-2.393c.252-.533.393-1.119.393-1.708v-.292zm-10 4-2 .002v-6.002h2zm18.879 16.411c-.935 2.18-3.071 3.589-5.443 3.589-2.233 0-4.248-1.411-5.012-3.511l-5.459-15.011c-.64-1.76-.965-3.603-.965-5.478 0-1.103.897-2 2-2s2 .897 2 2v.292c0 .309-.073.618-.211.895l-.929 1.857 9.282 15.471 1.715-1.029-2.495-4.158 4.804 1.068c.077.471.175.94.306 1.4.341 1.194.604 2.406.832 3.623zm27.121 9.589h-4v-3.301c0-3.616.501-7.214 1.476-10.699h2.524zm2-16h-4.106c.068-.524.106-1.052.106-1.581 0-2.434-.714-4.791-2.064-6.818l-.104-.155-1.664 1.109.104.155c1.13 1.697 1.728 3.671 1.728 5.709 0 .955-.133 1.906-.396 2.827-1.064 3.728-1.604 7.581-1.604 11.453v3.301h-18v-3.301c0-3.872-.54-7.726-1.604-11.453-.263-.921-.396-1.872-.396-2.827 0-2.038.598-4.012 1.729-5.709l.104-.155-1.664-1.109-.104.155c-1.33 1.997-2.039 4.314-2.06 6.709l-4.213-.936.361-1.262c1.347-4.717 4.697-8.619 9.044-10.729l.094 1.129c.419 5.032 2.042 9.916 4.683 14.212-1.188.781-1.974 2.122-1.974 3.645 0 2.009 1.36 3.752 3.309 4.238l.479.12c.124.032.212.144.212.273 0 1.654 1.346 3 3 3s3-1.346 3-3v-4.631c0-1.524-.787-2.864-1.972-3.646 2.64-4.297 4.264-9.181 4.683-14.212l.138-1.663c5.365 1.922 9.151 7.079 9.151 12.949z"></path><path d="m35 49h2v2h-2z"></path></g></svg> 